# xmcd
#
# Track frame offsets:
#	150
#	15361
#	27298
#	44125
#	56814
#	72606
#	89165
#	107837
#	120783
#	135574
#	152479
#
# Disc length: 2241 seconds
#
# Revision: 1
# Processed by: cddbd v1.5.1PL0 Copyright (c) Steve Scherf et al.
# Submitted via: audiograbber 1.83.01
#
DISCID=9408bf0b
DTITLE=Kevin Sharp  - Make A Wish 
DYEAR=2005
DGENRE=Country
TTITLE0=Kevin Sharp  - I Am The Woking Man
TTITLE1=Kevin Sharp  - You Are The Reason Why
TTITLE2=Kevin Sharp  - Let Me Rock You To Sleep
TTITLE3=Kevin Sharp  - I Think I'll Stay
TTITLE4=Kevin Sharp  - Make A Wish
TTITLE5=Kevin Sharp  - Your Love Reaches Me
TTITLE6=Kevin Sharp  - You Showed Me How To Love
TTITLE7=Kevin Sharp  - All I Could Say
TTITLE8=Kevin Sharp  - What People Throw Away
TTITLE9=Kevin Sharp  - They Listen To Music
TTITLE10=Kevin Sharp  - Nobody Knows
EXTD=
EXTT0=
EXTT1=
EXTT2=
EXTT3=
EXTT4=
EXTT5=
EXTT6=
EXTT7=
EXTT8=
EXTT9=
EXTT10=
PLAYORDER=
